<?xml version="1.0" encoding="UTF-8" standalone="no"?>
<!-- Created with Inkscape (http://www.inkscape.org/) -->

<svg
   xmlns:dc="http://purl.org/dc/elements/1.1/"
   xmlns:cc="http://creativecommons.org/ns#"
   xmlns:rdf="http://www.w3.org/1999/02/22-rdf-syntax-ns#"
   xmlns:svg="http://www.w3.org/2000/svg"
   xmlns="http://www.w3.org/2000/svg"
   xmlns:sodipodi="http://sodipodi.sourceforge.net/DTD/sodipodi-0.dtd"
   xmlns:inkscape="http://www.inkscape.org/namespaces/inkscape"
   id="svg2"
   version="1.1"
   inkscape:version="0.91 r13725"
   xml:space="preserve"
   width="380"
   height="688.75"
   viewBox="0 0 380 688.75"
   sodipodi:docname="sbox_serpent1_16n_10r_graph.svg"><metadata
     id="metadata8"><rdf:RDF><cc:Work
         rdf:about=""><dc:format>image/svg+xml</dc:format><dc:type
           rdf:resource="http://purl.org/dc/dcmitype/StillImage" /><dc:title></dc:title></cc:Work></rdf:RDF></metadata><defs
     id="defs6" /><sodipodi:namedview
     pagecolor="#ffffff"
     bordercolor="#666666"
     borderopacity="1"
     objecttolerance="10"
     gridtolerance="10"
     guidetolerance="10"
     inkscape:pageopacity="0"
     inkscape:pageshadow="2"
     inkscape:window-width="1678"
     inkscape:window-height="1048"
     id="namedview4"
     showgrid="false"
     inkscape:zoom="1.3705989"
     inkscape:cx="162.45038"
     inkscape:cy="362.87993"
     inkscape:window-x="1920"
     inkscape:window-y="0"
     inkscape:window-maximized="0"
     inkscape:current-layer="g10" /><g
     id="g10"
     inkscape:groupmode="layer"
     inkscape:label="sbox_serpent1_16n_10r_graph"
     transform="matrix(1.25,0,0,-1.25,0,688.75)"><path
       inkscape:connector-curvature="0"
       id="path16"
       style="fill:#ff0000;fill-opacity:1;fill-rule:nonzero;stroke:#000000;stroke-width:1;stroke-linecap:butt;stroke-linejoin:round;stroke-miterlimit:10;stroke-dasharray:none;stroke-opacity:1"
       d="m 238,145 c 0,-9.941 -12.09,-18 -27,-18 -14.91,0 -27,8.059 -27,18 0,9.941 12.09,18 27,18 14.91,0 27,-8.059 27,-18" /><text
       id="text18"
       style="font-variant:normal;font-weight:normal;font-size:14.00024414px;font-family:'Times New Roman';-inkscape-font-specification:TimesNewRomanPSMT;writing-mode:lr-tb;fill:#000000;fill-opacity:1;fill-rule:nonzero;stroke:none"
       transform="scale(1,-1)"
       x="203"
       y="-141.30078"><tspan
         id="tspan20"
         sodipodi:role="line"
         y="-141.30078"
         x="203 210.50414">42</tspan></text>
<path
       inkscape:connector-curvature="0"
       id="path22"
       style="fill:none;stroke:#000000;stroke-width:1;stroke-linecap:butt;stroke-linejoin:round;stroke-miterlimit:10;stroke-dasharray:none;stroke-opacity:1"
       d="M 235.531,152.75 C 246.508,153.492 256,150.906 256,145 c 0,-3.969 -4.285,-6.438 -10.426,-7.406" /><path
       inkscape:connector-curvature="0"
       id="path24"
       style="fill:#000000;fill-opacity:1;fill-rule:nonzero;stroke:#000000;stroke-width:1;stroke-linecap:butt;stroke-linejoin:round;stroke-miterlimit:10;stroke-dasharray:none;stroke-opacity:1"
       d="m 245.648,134.094 -10.117,3.156 9.875,3.84 0.242,-6.996 z" /><text
       id="text26"
       style="font-variant:normal;font-weight:normal;font-size:14.00024414px;font-family:'Times New Roman';-inkscape-font-specification:TimesNewRomanPSMT;writing-mode:lr-tb;fill:#000000;fill-opacity:1;fill-rule:nonzero;stroke:none"
       transform="scale(1,-1)"
       x="256"
       y="-141.30078"><tspan
         id="tspan28"
         y="-141.30078"
         x="256">4</tspan></text>
<path
       inkscape:connector-curvature="0"
       id="path30"
       style="fill:none;stroke:#000000;stroke-width:1;stroke-linecap:butt;stroke-linejoin:round;stroke-miterlimit:10;stroke-dasharray:none;stroke-opacity:1"
       d="m 186,232 c 0,-9.941 -12.09,-18 -27,-18 -14.91,0 -27,8.059 -27,18 0,9.941 12.09,18 27,18 14.91,0 27,-8.059 27,-18" /><text
       id="text32"
       style="font-variant:normal;font-weight:normal;font-size:14.00024414px;font-family:'Times New Roman';-inkscape-font-specification:TimesNewRomanPSMT;writing-mode:lr-tb;fill:#000000;fill-opacity:1;fill-rule:nonzero;stroke:none"
       transform="scale(1,-1)"
       x="151"
       y="-228.30078"><tspan
         id="tspan34"
         sodipodi:role="line"
         y="-228.30078"
         x="151 158.50414">43</tspan></text>
<path
       inkscape:connector-curvature="0"
       id="path36"
       style="fill:none;stroke:#000000;stroke-width:1;stroke-linecap:butt;stroke-linejoin:round;stroke-miterlimit:10;stroke-dasharray:none;stroke-opacity:1"
       d="m 168.781,215.012 c 7.625,-12.465 18.352,-30 27.086,-44.274" /><path
       inkscape:connector-curvature="0"
       id="path38"
       style="fill:#000000;fill-opacity:1;fill-rule:nonzero;stroke:#000000;stroke-width:1;stroke-linecap:butt;stroke-linejoin:round;stroke-miterlimit:10;stroke-dasharray:none;stroke-opacity:1"
       d="m 199.031,172.273 2.231,-10.355 -8.203,6.703 5.972,3.652 z" /><text
       id="text40"
       style="font-variant:normal;font-weight:normal;font-size:14.00024414px;font-family:'Times New Roman';-inkscape-font-specification:TimesNewRomanPSMT;writing-mode:lr-tb;fill:#000000;fill-opacity:1;fill-rule:nonzero;stroke:none"
       transform="scale(1,-1)"
       x="188"
       y="-184.80078"><tspan
         id="tspan42"
         y="-184.80078"
         x="188">4</tspan></text>
<path
       inkscape:connector-curvature="0"
       id="path44"
       style="fill:none;stroke:#000000;stroke-width:1;stroke-linecap:butt;stroke-linejoin:round;stroke-miterlimit:10;stroke-dasharray:none;stroke-opacity:1"
       d="m 122,145 c 0,-9.941 -12.09,-18 -27,-18 -14.91,0 -27,8.059 -27,18 0,9.941 12.09,18 27,18 14.91,0 27,-8.059 27,-18" /><text
       id="text46"
       style="font-variant:normal;font-weight:normal;font-size:14.00024414px;font-family:'Times New Roman';-inkscape-font-specification:TimesNewRomanPSMT;writing-mode:lr-tb;fill:#000000;fill-opacity:1;fill-rule:nonzero;stroke:none"
       transform="scale(1,-1)"
       x="87"
       y="-141.30078"><tspan
         id="tspan48"
         sodipodi:role="line"
         y="-141.30078"
         x="87 94.504128">58</tspan></text>
<path
       inkscape:connector-curvature="0"
       id="path50"
       style="fill:none;stroke:#000000;stroke-width:1;stroke-linecap:butt;stroke-linejoin:round;stroke-miterlimit:10;stroke-dasharray:none;stroke-opacity:1"
       d="m 147.262,215.41 c -9.653,-12.82 -23.485,-31.191 -34.496,-45.812" /><path
       inkscape:connector-curvature="0"
       id="path52"
       style="fill:#000000;fill-opacity:1;fill-rule:nonzero;stroke:#000000;stroke-width:1;stroke-linecap:butt;stroke-linejoin:round;stroke-miterlimit:10;stroke-dasharray:none;stroke-opacity:1"
       d="m 115.477,167.375 -8.813,-5.883 3.219,10.094 5.594,-4.211 z" /><text
       id="text54"
       style="font-variant:normal;font-weight:normal;font-size:14.00024414px;font-family:'Times New Roman';-inkscape-font-specification:TimesNewRomanPSMT;writing-mode:lr-tb;fill:#000000;fill-opacity:1;fill-rule:nonzero;stroke:none"
       transform="scale(1,-1)"
       x="130"
       y="-184.80078"><tspan
         id="tspan56"
         y="-184.80078"
         x="130">4</tspan></text>
<path
       inkscape:connector-curvature="0"
       id="path58"
       style="fill:none;stroke:#000000;stroke-width:1;stroke-linecap:butt;stroke-linejoin:round;stroke-miterlimit:10;stroke-dasharray:none;stroke-opacity:1"
       d="m 122,58 c 0,-9.941 -12.09,-18 -27,-18 -14.91,0 -27,8.059 -27,18 0,9.941 12.09,18 27,18 14.91,0 27,-8.059 27,-18" /><text
       id="text60"
       style="font-variant:normal;font-weight:normal;font-size:14.00024414px;font-family:'Times New Roman';-inkscape-font-specification:TimesNewRomanPSMT;writing-mode:lr-tb;fill:#000000;fill-opacity:1;fill-rule:nonzero;stroke:none"
       transform="scale(1,-1)"
       x="87"
       y="-54.300781"><tspan
         id="tspan62"
         sodipodi:role="line"
         y="-54.300781"
         x="87 94.504128">46</tspan></text>
<path
       inkscape:connector-curvature="0"
       id="path64"
       style="fill:none;stroke:#000000;stroke-width:1;stroke-linecap:butt;stroke-linejoin:round;stroke-miterlimit:10;stroke-dasharray:none;stroke-opacity:1"
       d="m 104.789,75 c 7.922,13.48 18.922,33.48 26.211,52 10.016,25.453 17.73,55.777 22.5,77.094" /><path
       inkscape:connector-curvature="0"
       id="path66"
       style="fill:#000000;fill-opacity:1;fill-rule:nonzero;stroke:#000000;stroke-width:1;stroke-linecap:butt;stroke-linejoin:round;stroke-miterlimit:10;stroke-dasharray:none;stroke-opacity:1"
       d="m 150.121,205.027 5.543,9.032 1.297,-10.516 -6.84,1.484 z" /><text
       id="text68"
       style="font-variant:normal;font-weight:normal;font-size:14.00024414px;font-family:'Times New Roman';-inkscape-font-specification:TimesNewRomanPSMT;writing-mode:lr-tb;fill:#000000;fill-opacity:1;fill-rule:nonzero;stroke:none"
       transform="scale(1,-1)"
       x="142"
       y="-141.30078"><tspan
         id="tspan70"
         y="-141.30078"
         x="142">4</tspan></text>
<path
       inkscape:connector-curvature="0"
       id="path72"
       style="fill:none;stroke:#000000;stroke-width:1;stroke-linecap:butt;stroke-linejoin:round;stroke-miterlimit:10;stroke-dasharray:none;stroke-opacity:1"
       d="m 192,319 c 0,-9.941 -12.09,-18 -27,-18 -14.91,0 -27,8.059 -27,18 0,9.941 12.09,18 27,18 14.91,0 27,-8.059 27,-18" /><text
       id="text74"
       style="font-variant:normal;font-weight:normal;font-size:14.00024414px;font-family:'Times New Roman';-inkscape-font-specification:TimesNewRomanPSMT;writing-mode:lr-tb;fill:#000000;fill-opacity:1;fill-rule:nonzero;stroke:none"
       transform="scale(1,-1)"
       x="157"
       y="-315.30078"><tspan
         id="tspan76"
         sodipodi:role="line"
         y="-315.30078"
         x="157 164.50414">47</tspan></text>
<path
       inkscape:connector-curvature="0"
       id="path78"
       style="fill:none;stroke:#000000;stroke-width:1;stroke-linecap:butt;stroke-linejoin:round;stroke-miterlimit:10;stroke-dasharray:none;stroke-opacity:1"
       d="m 163.785,300.801 c -0.82,-11.637 -1.922,-27.254 -2.863,-40.563" /><path
       inkscape:connector-curvature="0"
       id="path80"
       style="fill:#000000;fill-opacity:1;fill-rule:nonzero;stroke:#000000;stroke-width:1;stroke-linecap:butt;stroke-linejoin:round;stroke-miterlimit:10;stroke-dasharray:none;stroke-opacity:1"
       d="m 164.406,259.902 -4.195,-9.726 -2.785,10.222 6.98,-0.496 z" /><text
       id="text82"
       style="font-variant:normal;font-weight:normal;font-size:14.00024414px;font-family:'Times New Roman';-inkscape-font-specification:TimesNewRomanPSMT;writing-mode:lr-tb;fill:#000000;fill-opacity:1;fill-rule:nonzero;stroke:none"
       transform="scale(1,-1)"
       x="162"
       y="-271.80078"><tspan
         id="tspan84"
         y="-271.80078"
         x="162">4</tspan></text>
<path
       inkscape:connector-curvature="0"
       id="path86"
       style="fill:none;stroke:#000000;stroke-width:1;stroke-linecap:butt;stroke-linejoin:round;stroke-miterlimit:10;stroke-dasharray:none;stroke-opacity:1"
       d="m 122,493 c 0,-9.941 -12.09,-18 -27,-18 -14.91,0 -27,8.059 -27,18 0,9.941 12.09,18 27,18 14.91,0 27,-8.059 27,-18" /><text
       id="text88"
       style="font-variant:normal;font-weight:normal;font-size:14.00024414px;font-family:'Times New Roman';-inkscape-font-specification:TimesNewRomanPSMT;writing-mode:lr-tb;fill:#000000;fill-opacity:1;fill-rule:nonzero;stroke:none"
       transform="scale(1,-1)"
       x="87"
       y="-489.30078"><tspan
         id="tspan90"
         sodipodi:role="line"
         y="-489.30078"
         x="87 94.504128">59</tspan></text>
<path
       inkscape:connector-curvature="0"
       id="path92"
       style="fill:none;stroke:#000000;stroke-width:1;stroke-linecap:butt;stroke-linejoin:round;stroke-miterlimit:10;stroke-dasharray:none;stroke-opacity:1"
       d="m 183.012,332.805 c 25.312,19.621 66.176,58.312 45.988,91.195 -21.309,34.707 -66.457,52.371 -98.445,60.871" /><path
       inkscape:connector-curvature="0"
       id="path94"
       style="fill:#000000;fill-opacity:1;fill-rule:nonzero;stroke:#000000;stroke-width:1;stroke-linecap:butt;stroke-linejoin:round;stroke-miterlimit:10;stroke-dasharray:none;stroke-opacity:1"
       d="m 129.543,481.516 -8.867,5.804 10.551,0.992 -1.684,-6.796 z" /><text
       id="text96"
       style="font-variant:normal;font-weight:normal;font-size:14.00024414px;font-family:'Times New Roman';-inkscape-font-specification:TimesNewRomanPSMT;writing-mode:lr-tb;fill:#000000;fill-opacity:1;fill-rule:nonzero;stroke:none"
       transform="scale(1,-1)"
       x="234"
       y="-402.30078"><tspan
         id="tspan98"
         y="-402.30078"
         x="234">4</tspan></text>
<path
       inkscape:connector-curvature="0"
       id="path100"
       style="fill:none;stroke:#000000;stroke-width:1;stroke-linecap:butt;stroke-linejoin:round;stroke-miterlimit:10;stroke-dasharray:none;stroke-opacity:1"
       d="m 95,126.801 c 0,-11.637 0,-27.254 0,-40.563" /><path
       inkscape:connector-curvature="0"
       id="path102"
       style="fill:#000000;fill-opacity:1;fill-rule:nonzero;stroke:#000000;stroke-width:1;stroke-linecap:butt;stroke-linejoin:round;stroke-miterlimit:10;stroke-dasharray:none;stroke-opacity:1"
       d="m 98.5,86.176 -3.5,-10 -3.5,10 7,0 z" /><text
       id="text104"
       style="font-variant:normal;font-weight:normal;font-size:14.00024414px;font-family:'Times New Roman';-inkscape-font-specification:TimesNewRomanPSMT;writing-mode:lr-tb;fill:#000000;fill-opacity:1;fill-rule:nonzero;stroke:none"
       transform="scale(1,-1)"
       x="95"
       y="-97.800781"><tspan
         id="tspan106"
         y="-97.800781"
         x="95">4</tspan></text>
<path
       inkscape:connector-curvature="0"
       id="path108"
       style="fill:none;stroke:#000000;stroke-width:1;stroke-linecap:butt;stroke-linejoin:round;stroke-miterlimit:10;stroke-dasharray:none;stroke-opacity:1"
       d="M 79.09,478.41 C 62.848,462.93 40,436 40,407 c 0,0 0,0 0,-263 0,-24.922 16.875,-48.316 31.93,-64.227" /><path
       inkscape:connector-curvature="0"
       id="path110"
       style="fill:#000000;fill-opacity:1;fill-rule:nonzero;stroke:#000000;stroke-width:1;stroke-linecap:butt;stroke-linejoin:round;stroke-miterlimit:10;stroke-dasharray:none;stroke-opacity:1"
       d="m 74.508,82.145 4.582,-9.555 -9.539,4.613 4.957,4.942 z" /><text
       id="text112"
       style="font-variant:normal;font-weight:normal;font-size:14.00024414px;font-family:'Times New Roman';-inkscape-font-specification:TimesNewRomanPSMT;writing-mode:lr-tb;fill:#000000;fill-opacity:1;fill-rule:nonzero;stroke:none"
       transform="scale(1,-1)"
       x="40"
       y="-271.80078"><tspan
         id="tspan114"
         y="-271.80078"
         x="40">4</tspan></text>
<path
       inkscape:connector-curvature="0"
       id="path116"
       style="fill:none;stroke:#000000;stroke-width:1;stroke-linecap:butt;stroke-linejoin:round;stroke-miterlimit:10;stroke-dasharray:none;stroke-opacity:1"
       d="m 122,406 c 0,-9.941 -12.09,-18 -27,-18 -14.91,0 -27,8.059 -27,18 0,9.941 12.09,18 27,18 14.91,0 27,-8.059 27,-18" /><text
       id="text118"
       style="font-variant:normal;font-weight:normal;font-size:14.00024414px;font-family:'Times New Roman';-inkscape-font-specification:TimesNewRomanPSMT;writing-mode:lr-tb;fill:#000000;fill-opacity:1;fill-rule:nonzero;stroke:none"
       transform="scale(1,-1)"
       x="87"
       y="-402.30078"><tspan
         id="tspan120"
         sodipodi:role="line"
         y="-402.30078"
         x="87 94.504128">62</tspan></text>
<path
       inkscape:connector-curvature="0"
       id="path122"
       style="fill:none;stroke:#000000;stroke-width:1;stroke-linecap:butt;stroke-linejoin:round;stroke-miterlimit:10;stroke-dasharray:none;stroke-opacity:1"
       d="m 95,474.801 c 0,-11.637 0,-27.254 0,-40.563" /><path
       inkscape:connector-curvature="0"
       id="path124"
       style="fill:#000000;fill-opacity:1;fill-rule:nonzero;stroke:#000000;stroke-width:1;stroke-linecap:butt;stroke-linejoin:round;stroke-miterlimit:10;stroke-dasharray:none;stroke-opacity:1"
       d="m 98.5,434.176 -3.5,-10 -3.5,10 7,0 z" /><text
       id="text126"
       style="font-variant:normal;font-weight:normal;font-size:14.00024414px;font-family:'Times New Roman';-inkscape-font-specification:TimesNewRomanPSMT;writing-mode:lr-tb;fill:#000000;fill-opacity:1;fill-rule:nonzero;stroke:none"
       transform="scale(1,-1)"
       x="95"
       y="-445.80078"><tspan
         id="tspan128"
         y="-445.80078"
         x="95">4</tspan></text>
<path
       inkscape:connector-curvature="0"
       id="path130"
       style="fill:none;stroke:#000000;stroke-width:1;stroke-linecap:butt;stroke-linejoin:round;stroke-miterlimit:10;stroke-dasharray:none;stroke-opacity:1"
       d="m 107.516,389.805 c 10.75,-13.055 26.406,-32.071 38.668,-46.957" /><path
       inkscape:connector-curvature="0"
       id="path132"
       style="fill:#000000;fill-opacity:1;fill-rule:nonzero;stroke:#000000;stroke-width:1;stroke-linecap:butt;stroke-linejoin:round;stroke-miterlimit:10;stroke-dasharray:none;stroke-opacity:1"
       d="m 148.938,345.008 3.656,-9.942 -9.059,5.493 5.403,4.449 z" /><text
       id="text134"
       style="font-variant:normal;font-weight:normal;font-size:14.00024414px;font-family:'Times New Roman';-inkscape-font-specification:TimesNewRomanPSMT;writing-mode:lr-tb;fill:#000000;fill-opacity:1;fill-rule:nonzero;stroke:none"
       transform="scale(1,-1)"
       x="134"
       y="-358.80078"><tspan
         id="tspan136"
         y="-358.80078"
         x="134">4</tspan></text>
<path
       inkscape:connector-curvature="0"
       id="path138"
       style="fill:#00ff00;fill-opacity:1;fill-rule:nonzero;stroke:#000000;stroke-width:1;stroke-linecap:butt;stroke-linejoin:round;stroke-miterlimit:10;stroke-dasharray:none;stroke-opacity:1"
       d="m 194,406 c 0,-9.941 -12.09,-18 -27,-18 -14.91,0 -27,8.059 -27,18 0,9.941 12.09,18 27,18 14.91,0 27,-8.059 27,-18" /><text
       id="text140"
       style="font-variant:normal;font-weight:normal;font-size:14.00024414px;font-family:'Times New Roman';-inkscape-font-specification:TimesNewRomanPSMT;writing-mode:lr-tb;fill:#000000;fill-opacity:1;fill-rule:nonzero;stroke:none"
       transform="scale(1,-1)"
       x="159"
       y="-402.30078"><tspan
         id="tspan142"
         sodipodi:role="line"
         y="-402.30078"
         x="159 166.50414">63</tspan></text>
<path
       inkscape:connector-curvature="0"
       id="path144"
       style="fill:none;stroke:#000000;stroke-width:1;stroke-linecap:butt;stroke-linejoin:round;stroke-miterlimit:10;stroke-dasharray:none;stroke-opacity:1"
       d="m 166.594,387.801 c -0.274,-11.637 -0.641,-27.254 -0.953,-40.563" /><path
       inkscape:connector-curvature="0"
       id="path146"
       style="fill:#000000;fill-opacity:1;fill-rule:nonzero;stroke:#000000;stroke-width:1;stroke-linecap:butt;stroke-linejoin:round;stroke-miterlimit:10;stroke-dasharray:none;stroke-opacity:1"
       d="m 169.137,347.09 -3.735,-9.914 -3.261,10.078 6.996,-0.164 z" /><text
       id="text148"
       style="font-variant:normal;font-weight:normal;font-size:14.00024414px;font-family:'Times New Roman';-inkscape-font-specification:TimesNewRomanPSMT;writing-mode:lr-tb;fill:#000000;fill-opacity:1;fill-rule:nonzero;stroke:none"
       transform="scale(1,-1)"
       x="166"
       y="-358.80078"><tspan
         id="tspan150"
         y="-358.80078"
         x="166">4</tspan></text>
<path
       inkscape:connector-curvature="0"
       id="path152"
       style="fill:none;stroke:#000000;stroke-width:1;stroke-linecap:butt;stroke-linejoin:round;stroke-miterlimit:10;stroke-dasharray:none;stroke-opacity:1"
       d="M 191.531,413.75 C 202.508,414.492 212,411.906 212,406 c 0,-3.969 -4.285,-6.438 -10.426,-7.406" /><path
       inkscape:connector-curvature="0"
       id="path154"
       style="fill:#000000;fill-opacity:1;fill-rule:nonzero;stroke:#000000;stroke-width:1;stroke-linecap:butt;stroke-linejoin:round;stroke-miterlimit:10;stroke-dasharray:none;stroke-opacity:1"
       d="m 201.648,395.094 -10.117,3.156 9.875,3.84 0.242,-6.996 z" /><text
       id="text156"
       style="font-variant:normal;font-weight:normal;font-size:14.00024414px;font-family:'Times New Roman';-inkscape-font-specification:TimesNewRomanPSMT;writing-mode:lr-tb;fill:#000000;fill-opacity:1;fill-rule:nonzero;stroke:none"
       transform="scale(1,-1)"
       x="212"
       y="-402.30078"><tspan
         id="tspan158"
         y="-402.30078"
         x="212">4</tspan></text>
</g></svg>