<?xml version="1.0" encoding="UTF-8" standalone="no"?>
<!-- Created with Inkscape (http://www.inkscape.org/) -->

<svg
   xmlns:dc="http://purl.org/dc/elements/1.1/"
   xmlns:cc="http://creativecommons.org/ns#"
   xmlns:rdf="http://www.w3.org/1999/02/22-rdf-syntax-ns#"
   xmlns:svg="http://www.w3.org/2000/svg"
   xmlns="http://www.w3.org/2000/svg"
   xmlns:sodipodi="http://sodipodi.sourceforge.net/DTD/sodipodi-0.dtd"
   xmlns:inkscape="http://www.inkscape.org/namespaces/inkscape"
   id="svg2"
   version="1.1"
   inkscape:version="0.91 r13725"
   xml:space="preserve"
   width="350"
   height="797.5"
   viewBox="0 0 350 797.5"
   sodipodi:docname="sbox_serpent2_16n_10r_graph.svg"><metadata
     id="metadata8"><rdf:RDF><cc:Work
         rdf:about=""><dc:format>image/svg+xml</dc:format><dc:type
           rdf:resource="http://purl.org/dc/dcmitype/StillImage" /><dc:title></dc:title></cc:Work></rdf:RDF></metadata><defs
     id="defs6" /><sodipodi:namedview
     pagecolor="#ffffff"
     bordercolor="#666666"
     borderopacity="1"
     objecttolerance="10"
     gridtolerance="10"
     guidetolerance="10"
     inkscape:pageopacity="0"
     inkscape:pageshadow="2"
     inkscape:window-width="1678"
     inkscape:window-height="1048"
     id="namedview4"
     showgrid="false"
     inkscape:zoom="0.83700163"
     inkscape:cx="11.006915"
     inkscape:cy="482.44512"
     inkscape:window-x="1920"
     inkscape:window-y="0"
     inkscape:window-maximized="0"
     inkscape:current-layer="g10" /><g
     id="g10"
     inkscape:groupmode="layer"
     inkscape:label="sbox_serpent2_16n_10r_graph"
     transform="matrix(1.25,0,0,-1.25,0,797.5)"
     style="opacity:1"><path
       inkscape:connector-curvature="0"
       id="path16"
       style="fill:none;stroke:#000000;stroke-width:1;stroke-linecap:butt;stroke-linejoin:round;stroke-miterlimit:10;stroke-dasharray:none;stroke-opacity:1"
       d="m 239,580 c 0,-9.941 -12.09,-18 -27,-18 -14.91,0 -27,8.059 -27,18 0,9.941 12.09,18 27,18 14.91,0 27,-8.059 27,-18" /><text
       id="text18"
       style="font-variant:normal;font-weight:normal;font-size:14.00024414px;font-family:'Times New Roman';-inkscape-font-specification:TimesNewRomanPSMT;writing-mode:lr-tb;fill:#000000;fill-opacity:1;fill-rule:nonzero;stroke:none"
       transform="scale(1,-1)"
       x="204"
       y="-576.30078"><tspan
         id="tspan20"
         sodipodi:role="line"
         y="-576.30078"
         x="204 211.50414">42</tspan></text>
<path
       inkscape:connector-curvature="0"
       id="path22"
       style="fill:none;stroke:#000000;stroke-width:1;stroke-linecap:butt;stroke-linejoin:round;stroke-miterlimit:10;stroke-dasharray:none;stroke-opacity:1"
       d="m 204,493 c 0,-9.941 -12.09,-18 -27,-18 -14.91,0 -27,8.059 -27,18 0,9.941 12.09,18 27,18 14.91,0 27,-8.059 27,-18" /><text
       id="text24"
       style="font-variant:normal;font-weight:normal;font-size:14.00024414px;font-family:'Times New Roman';-inkscape-font-specification:TimesNewRomanPSMT;writing-mode:lr-tb;fill:#000000;fill-opacity:1;fill-rule:nonzero;stroke:none"
       transform="scale(1,-1)"
       x="169"
       y="-489.30078"><tspan
         id="tspan26"
         sodipodi:role="line"
         y="-489.30078"
         x="169 176.50414">58</tspan></text>
<path
       inkscape:connector-curvature="0"
       id="path28"
       style="fill:none;stroke:#000000;stroke-width:1;stroke-linecap:butt;stroke-linejoin:round;stroke-miterlimit:10;stroke-dasharray:none;stroke-opacity:1"
       d="m 205.086,562.207 c -4.969,-12.07 -11.766,-28.57 -17.426,-42.316" /><path
       inkscape:connector-curvature="0"
       id="path30"
       style="fill:#000000;fill-opacity:1;fill-rule:nonzero;stroke:#000000;stroke-width:1;stroke-linecap:butt;stroke-linejoin:round;stroke-miterlimit:10;stroke-dasharray:none;stroke-opacity:1"
       d="m 190.824,518.383 -7.043,-7.914 0.571,10.578 6.472,-2.664 z" /><text
       id="text32"
       style="font-variant:normal;font-weight:normal;font-size:14.00024414px;font-family:'Times New Roman';-inkscape-font-specification:TimesNewRomanPSMT;writing-mode:lr-tb;fill:#000000;fill-opacity:1;fill-rule:nonzero;stroke:none"
       transform="scale(1,-1)"
       x="196"
       y="-532.80078"><tspan
         id="tspan34"
         y="-532.80078"
         x="196">4</tspan></text>
<path
       inkscape:connector-curvature="0"
       id="path36"
       style="fill:none;stroke:#000000;stroke-width:1;stroke-linecap:butt;stroke-linejoin:round;stroke-miterlimit:10;stroke-dasharray:none;stroke-opacity:1"
       d="m 221,145 c 0,-9.941 -12.09,-18 -27,-18 -14.91,0 -27,8.059 -27,18 0,9.941 12.09,18 27,18 14.91,0 27,-8.059 27,-18" /><text
       id="text38"
       style="font-variant:normal;font-weight:normal;font-size:14.00024414px;font-family:'Times New Roman';-inkscape-font-specification:TimesNewRomanPSMT;writing-mode:lr-tb;fill:#000000;fill-opacity:1;fill-rule:nonzero;stroke:none"
       transform="scale(1,-1)"
       x="186"
       y="-141.30078"><tspan
         id="tspan40"
         sodipodi:role="line"
         y="-141.30078"
         x="186 193.50414">43</tspan></text>
<path
       inkscape:connector-curvature="0"
       id="path42"
       style="fill:none;stroke:#000000;stroke-width:1;stroke-linecap:butt;stroke-linejoin:round;stroke-miterlimit:10;stroke-dasharray:none;stroke-opacity:1"
       d="M 205.609,161.371 C 216.781,177.73 232,204.812 232,231 c 0,263 0,263 0,263 0,20.086 -5.359,42.152 -10.527,58.766" /><path
       inkscape:connector-curvature="0"
       id="path44"
       style="fill:#000000;fill-opacity:1;fill-rule:nonzero;stroke:#000000;stroke-width:1;stroke-linecap:butt;stroke-linejoin:round;stroke-miterlimit:10;stroke-dasharray:none;stroke-opacity:1"
       d="m 218.125,551.746 0.203,10.594 6.445,-8.41 -6.648,-2.184 z" /><text
       id="text46"
       style="font-variant:normal;font-weight:normal;font-size:14.00024414px;font-family:'Times New Roman';-inkscape-font-specification:TimesNewRomanPSMT;writing-mode:lr-tb;fill:#000000;fill-opacity:1;fill-rule:nonzero;stroke:none"
       transform="scale(1,-1)"
       x="232"
       y="-358.80078"><tspan
         id="tspan48"
         y="-358.80078"
         x="232">8</tspan></text>
<path
       inkscape:connector-curvature="0"
       id="path50"
       style="fill:none;stroke:#000000;stroke-width:1;stroke-linecap:butt;stroke-linejoin:round;stroke-miterlimit:10;stroke-dasharray:none;stroke-opacity:1"
       d="m 194,163.258 c 0,17.172 0,44.277 0,67.742 0,176 0,176 0,176 0,19.754 -4.469,41.594 -8.824,58.191" /><path
       inkscape:connector-curvature="0"
       id="path52"
       style="fill:#000000;fill-opacity:1;fill-rule:nonzero;stroke:#000000;stroke-width:1;stroke-linecap:butt;stroke-linejoin:round;stroke-miterlimit:10;stroke-dasharray:none;stroke-opacity:1"
       d="m 181.684,464.691 0.695,10.571 6.047,-8.696 -6.742,-1.875 z" /><text
       id="text54"
       style="font-variant:normal;font-weight:normal;font-size:14.00024414px;font-family:'Times New Roman';-inkscape-font-specification:TimesNewRomanPSMT;writing-mode:lr-tb;fill:#000000;fill-opacity:1;fill-rule:nonzero;stroke:none"
       transform="scale(1,-1)"
       x="194"
       y="-315.30078"><tspan
         id="tspan56"
         y="-315.30078"
         x="194">4</tspan></text>
<path
       inkscape:connector-curvature="0"
       id="path58"
       style="fill:none;stroke:#000000;stroke-width:1;stroke-linecap:butt;stroke-linejoin:round;stroke-miterlimit:10;stroke-dasharray:none;stroke-opacity:1"
       d="M 94,58 C 94,48.059 81.91,40 67,40 52.09,40 40,48.059 40,58 c 0,9.941 12.09,18 27,18 14.91,0 27,-8.059 27,-18" /><text
       id="text60"
       style="font-variant:normal;font-weight:normal;font-size:14.00024414px;font-family:'Times New Roman';-inkscape-font-specification:TimesNewRomanPSMT;writing-mode:lr-tb;fill:#000000;fill-opacity:1;fill-rule:nonzero;stroke:none"
       transform="scale(1,-1)"
       x="59"
       y="-54.300781"><tspan
         id="tspan62"
         sodipodi:role="line"
         y="-54.300781"
         x="59 66.504128">46</tspan></text>
<path
       inkscape:connector-curvature="0"
       id="path64"
       style="fill:none;stroke:#000000;stroke-width:1;stroke-linecap:butt;stroke-linejoin:round;stroke-miterlimit:10;stroke-dasharray:none;stroke-opacity:1"
       d="m 94,145 c 0,-9.941 -12.09,-18 -27,-18 -14.91,0 -27,8.059 -27,18 0,9.941 12.09,18 27,18 14.91,0 27,-8.059 27,-18" /><text
       id="text66"
       style="font-variant:normal;font-weight:normal;font-size:14.00024414px;font-family:'Times New Roman';-inkscape-font-specification:TimesNewRomanPSMT;writing-mode:lr-tb;fill:#000000;fill-opacity:1;fill-rule:nonzero;stroke:none"
       transform="scale(1,-1)"
       x="59"
       y="-141.30078"><tspan
         id="tspan68"
         sodipodi:role="line"
         y="-141.30078"
         x="59 66.504128">59</tspan></text>
<path
       inkscape:connector-curvature="0"
       id="path70"
       style="fill:none;stroke:#000000;stroke-width:1;stroke-linecap:butt;stroke-linejoin:round;stroke-miterlimit:10;stroke-dasharray:none;stroke-opacity:1"
       d="m 67,76.176 c 0,11.629 0,27.242 0,40.558" /><path
       inkscape:connector-curvature="0"
       id="path72"
       style="fill:#000000;fill-opacity:1;fill-rule:nonzero;stroke:#000000;stroke-width:1;stroke-linecap:butt;stroke-linejoin:round;stroke-miterlimit:10;stroke-dasharray:none;stroke-opacity:1"
       d="m 63.5,116.801 3.5,10 3.5,-10 -7,0 z" /><text
       id="text74"
       style="font-variant:normal;font-weight:normal;font-size:14.00024414px;font-family:'Times New Roman';-inkscape-font-specification:TimesNewRomanPSMT;writing-mode:lr-tb;fill:#000000;fill-opacity:1;fill-rule:nonzero;stroke:none"
       transform="scale(1,-1)"
       x="67"
       y="-97.800781"><tspan
         id="tspan76"
         y="-97.800781"
         x="67">4</tspan></text>
<path
       inkscape:connector-curvature="0"
       id="path78"
       style="fill:none;stroke:#000000;stroke-width:1;stroke-linecap:butt;stroke-linejoin:round;stroke-miterlimit:10;stroke-dasharray:none;stroke-opacity:1"
       d="m 132,232 c 0,-9.941 -12.09,-18 -27,-18 -14.91,0 -27,8.059 -27,18 0,9.941 12.09,18 27,18 14.91,0 27,-8.059 27,-18" /><text
       id="text80"
       style="font-variant:normal;font-weight:normal;font-size:14.00024414px;font-family:'Times New Roman';-inkscape-font-specification:TimesNewRomanPSMT;writing-mode:lr-tb;fill:#000000;fill-opacity:1;fill-rule:nonzero;stroke:none"
       transform="scale(1,-1)"
       x="97"
       y="-228.30078"><tspan
         id="tspan82"
         sodipodi:role="line"
         y="-228.30078"
         x="97 104.50413">47</tspan></text>
<path
       inkscape:connector-curvature="0"
       id="path84"
       style="fill:none;stroke:#000000;stroke-width:1;stroke-linecap:butt;stroke-linejoin:round;stroke-miterlimit:10;stroke-dasharray:none;stroke-opacity:1"
       d="m 120.098,216.582 c 14.148,-13.516 35.476,-33.887 51.59,-49.273" /><path
       inkscape:connector-curvature="0"
       id="path86"
       style="fill:#000000;fill-opacity:1;fill-rule:nonzero;stroke:#000000;stroke-width:1;stroke-linecap:butt;stroke-linejoin:round;stroke-miterlimit:10;stroke-dasharray:none;stroke-opacity:1"
       d="m 174.312,169.645 4.813,-9.438 -9.648,4.375 4.835,5.063 z" /><text
       id="text88"
       style="font-variant:normal;font-weight:normal;font-size:14.00024414px;font-family:'Times New Roman';-inkscape-font-specification:TimesNewRomanPSMT;writing-mode:lr-tb;fill:#000000;fill-opacity:1;fill-rule:nonzero;stroke:none"
       transform="scale(1,-1)"
       x="154"
       y="-184.80078"><tspan
         id="tspan90"
         y="-184.80078"
         x="154">8</tspan></text>
<path
       inkscape:connector-curvature="0"
       id="path92"
       style="fill:none;stroke:#000000;stroke-width:1;stroke-linecap:butt;stroke-linejoin:round;stroke-miterlimit:10;stroke-dasharray:none;stroke-opacity:1"
       d="M 97.672,214.609 C 92.258,202.5 84.777,185.77 78.562,171.859" /><path
       inkscape:connector-curvature="0"
       id="path94"
       style="fill:#000000;fill-opacity:1;fill-rule:nonzero;stroke:#000000;stroke-width:1;stroke-linecap:butt;stroke-linejoin:round;stroke-miterlimit:10;stroke-dasharray:none;stroke-opacity:1"
       d="m 81.582,170.039 -7.277,-7.699 0.886,10.555 6.391,-2.856 z" /><text
       id="text96"
       style="font-variant:normal;font-weight:normal;font-size:14.00024414px;font-family:'Times New Roman';-inkscape-font-specification:TimesNewRomanPSMT;writing-mode:lr-tb;fill:#000000;fill-opacity:1;fill-rule:nonzero;stroke:none"
       transform="scale(1,-1)"
       x="89"
       y="-184.80078"><tspan
         id="tspan98"
         y="-184.80078"
         x="89">4</tspan></text>
<path
       inkscape:connector-curvature="0"
       id="path100"
       style="fill:none;stroke:#000000;stroke-width:1;stroke-linecap:butt;stroke-linejoin:round;stroke-miterlimit:10;stroke-dasharray:none;stroke-opacity:1"
       d="m 132,406 c 0,-9.941 -12.09,-18 -27,-18 -14.91,0 -27,8.059 -27,18 0,9.941 12.09,18 27,18 14.91,0 27,-8.059 27,-18" /><text
       id="text102"
       style="font-variant:normal;font-weight:normal;font-size:14.00024414px;font-family:'Times New Roman';-inkscape-font-specification:TimesNewRomanPSMT;writing-mode:lr-tb;fill:#000000;fill-opacity:1;fill-rule:nonzero;stroke:none"
       transform="scale(1,-1)"
       x="97"
       y="-402.30078"><tspan
         id="tspan104"
         sodipodi:role="line"
         y="-402.30078"
         x="97 104.50413">62</tspan></text>
<path
       inkscape:connector-curvature="0"
       id="path106"
       style="fill:none;stroke:#000000;stroke-width:1;stroke-linecap:butt;stroke-linejoin:round;stroke-miterlimit:10;stroke-dasharray:none;stroke-opacity:1"
       d="M 164.129,476.805 C 153.07,463.75 136.965,444.734 124.352,429.848" /><path
       inkscape:connector-curvature="0"
       id="path108"
       style="fill:#000000;fill-opacity:1;fill-rule:nonzero;stroke:#000000;stroke-width:1;stroke-linecap:butt;stroke-linejoin:round;stroke-miterlimit:10;stroke-dasharray:none;stroke-opacity:1"
       d="m 126.895,427.434 -9.133,-5.368 3.793,9.891 5.34,-4.523 z" /><text
       id="text110"
       style="font-variant:normal;font-weight:normal;font-size:14.00024414px;font-family:'Times New Roman';-inkscape-font-specification:TimesNewRomanPSMT;writing-mode:lr-tb;fill:#000000;fill-opacity:1;fill-rule:nonzero;stroke:none"
       transform="scale(1,-1)"
       x="145"
       y="-445.80078"><tspan
         id="tspan112"
         y="-445.80078"
         x="145">4</tspan></text>
<path
       inkscape:connector-curvature="0"
       id="path114"
       style="fill:none;stroke:#000000;stroke-width:1;stroke-linecap:butt;stroke-linejoin:round;stroke-miterlimit:10;stroke-dasharray:none;stroke-opacity:1"
       d="M 59.59,127.453 C 56.121,117.77 53.121,105.27 55,94 c 0.484,-2.91 1.184,-5.902 2,-8.855" /><path
       inkscape:connector-curvature="0"
       id="path116"
       style="fill:#000000;fill-opacity:1;fill-rule:nonzero;stroke:#000000;stroke-width:1;stroke-linecap:butt;stroke-linejoin:round;stroke-miterlimit:10;stroke-dasharray:none;stroke-opacity:1"
       d="m 60.391,86.035 -0.278,-10.59 -6.386,8.453 6.664,2.137 z" /><text
       id="text118"
       style="font-variant:normal;font-weight:normal;font-size:14.00024414px;font-family:'Times New Roman';-inkscape-font-specification:TimesNewRomanPSMT;writing-mode:lr-tb;fill:#000000;fill-opacity:1;fill-rule:nonzero;stroke:none"
       transform="scale(1,-1)"
       x="55"
       y="-97.800781"><tspan
         id="tspan120"
         y="-97.800781"
         x="55">8</tspan></text>
<path
       inkscape:connector-curvature="0"
       id="path122"
       style="fill:none;stroke:#000000;stroke-width:1;stroke-linecap:butt;stroke-linejoin:round;stroke-miterlimit:10;stroke-dasharray:none;stroke-opacity:1"
       d="M 64.543,162.949 C 60.219,196.711 53.125,274.484 69,337 c 3.902,15.371 11.93,31.113 19.414,43.574" /><path
       inkscape:connector-curvature="0"
       id="path124"
       style="fill:#000000;fill-opacity:1;fill-rule:nonzero;stroke:#000000;stroke-width:1;stroke-linecap:butt;stroke-linejoin:round;stroke-miterlimit:10;stroke-dasharray:none;stroke-opacity:1"
       d="m 85.676,382.793 8.281,6.609 -2.352,-10.332 -5.929,3.723 z" /><text
       id="text126"
       style="font-variant:normal;font-weight:normal;font-size:14.00024414px;font-family:'Times New Roman';-inkscape-font-specification:TimesNewRomanPSMT;writing-mode:lr-tb;fill:#000000;fill-opacity:1;fill-rule:nonzero;stroke:none"
       transform="scale(1,-1)"
       x="61"
       y="-271.80078"><tspan
         id="tspan128"
         y="-271.80078"
         x="61">4</tspan></text>
<path
       inkscape:connector-curvature="0"
       id="path130"
       style="fill:#0000ff;fill-opacity:1;fill-rule:nonzero;stroke:#000000;stroke-width:1;stroke-linecap:butt;stroke-linejoin:round;stroke-miterlimit:10;stroke-dasharray:none;stroke-opacity:1"
       d="m 132,319 c 0,-9.941 -12.09,-18 -27,-18 -14.91,0 -27,8.059 -27,18 0,9.941 12.09,18 27,18 14.91,0 27,-8.059 27,-18" /><text
       id="text132"
       style="font-variant:normal;font-weight:normal;font-size:14.00024414px;font-family:'Times New Roman';-inkscape-font-specification:TimesNewRomanPSMT;writing-mode:lr-tb;fill:#000000;fill-opacity:1;fill-rule:nonzero;stroke:none"
       transform="scale(1,-1)"
       x="97"
       y="-315.30078"><tspan
         id="tspan134"
         sodipodi:role="line"
         y="-315.30078"
         x="97 104.50413">63</tspan></text>
<path
       inkscape:connector-curvature="0"
       id="path136"
       style="fill:none;stroke:#000000;stroke-width:1;stroke-linecap:butt;stroke-linejoin:round;stroke-miterlimit:10;stroke-dasharray:none;stroke-opacity:1"
       d="m 105,387.801 c 0,-11.637 0,-27.254 0,-40.563" /><path
       inkscape:connector-curvature="0"
       id="path138"
       style="fill:#000000;fill-opacity:1;fill-rule:nonzero;stroke:#000000;stroke-width:1;stroke-linecap:butt;stroke-linejoin:round;stroke-miterlimit:10;stroke-dasharray:none;stroke-opacity:1"
       d="m 108.5,347.176 -3.5,-10 -3.5,10 7,0 z" /><text
       id="text140"
       style="font-variant:normal;font-weight:normal;font-size:14.00024414px;font-family:'Times New Roman';-inkscape-font-specification:TimesNewRomanPSMT;writing-mode:lr-tb;fill:#000000;fill-opacity:1;fill-rule:nonzero;stroke:none"
       transform="scale(1,-1)"
       x="105"
       y="-358.80078"><tspan
         id="tspan142"
         y="-358.80078"
         x="105">4</tspan></text>
<path
       inkscape:connector-curvature="0"
       id="path144"
       style="fill:none;stroke:#000000;stroke-width:1;stroke-linecap:butt;stroke-linejoin:round;stroke-miterlimit:10;stroke-dasharray:none;stroke-opacity:1"
       d="m 105,300.801 c 0,-11.637 0,-27.254 0,-40.563" /><path
       inkscape:connector-curvature="0"
       id="path146"
       style="fill:#000000;fill-opacity:1;fill-rule:nonzero;stroke:#000000;stroke-width:1;stroke-linecap:butt;stroke-linejoin:round;stroke-miterlimit:10;stroke-dasharray:none;stroke-opacity:1"
       d="m 108.5,260.176 -3.5,-10 -3.5,10 7,0 z" /><text
       id="text148"
       style="font-variant:normal;font-weight:normal;font-size:14.00024414px;font-family:'Times New Roman';-inkscape-font-specification:TimesNewRomanPSMT;writing-mode:lr-tb;fill:#000000;fill-opacity:1;fill-rule:nonzero;stroke:none"
       transform="scale(1,-1)"
       x="105"
       y="-271.80078"><tspan
         id="tspan150"
         y="-271.80078"
         x="105">8</tspan></text>
<path
       inkscape:connector-curvature="0"
       id="path152"
       style="fill:none;stroke:#000000;stroke-width:1;stroke-linecap:butt;stroke-linejoin:round;stroke-miterlimit:10;stroke-dasharray:none;stroke-opacity:1"
       d="M 129.531,326.75 C 140.508,327.492 150,324.906 150,319 c 0,-3.969 -4.285,-6.438 -10.426,-7.406" /><path
       inkscape:connector-curvature="0"
       id="path154"
       style="fill:#000000;fill-opacity:1;fill-rule:nonzero;stroke:#000000;stroke-width:1;stroke-linecap:butt;stroke-linejoin:round;stroke-miterlimit:10;stroke-dasharray:none;stroke-opacity:1"
       d="m 139.648,308.094 -10.117,3.156 9.875,3.84 0.242,-6.996 z" /><text
       id="text156"
       style="font-variant:normal;font-weight:normal;font-size:14.00024414px;font-family:'Times New Roman';-inkscape-font-specification:TimesNewRomanPSMT;writing-mode:lr-tb;fill:#000000;fill-opacity:1;fill-rule:nonzero;stroke:none"
       transform="scale(1,-1)"
       x="150"
       y="-315.30078"><tspan
         id="tspan158"
         y="-315.30078"
         x="150">4</tspan></text>
</g></svg>